<svg id="visual" viewBox="0 0 540 960" width="540" height="960" xmlns="http://www.w3.org/2000/svg" xmlns:xlink="http://www.w3.org/1999/xlink" version="1.1"><rect x="0" y="0" width="540" height="960" fill="#001220"></rect><path d="M0 683L12.8 682C25.7 681 51.3 679 77 674.7C102.7 670.3 128.3 663.7 154 645.3C179.7 627 205.3 597 231.2 602C257 607 283 647 308.8 670.5C334.7 694 360.3 701 386 684.8C411.7 668.7 437.3 629.3 463 621.2C488.7 613 514.3 636 527.2 647.5L540 659L540 961L527.2 961C514.3 961 488.7 961 463 961C437.3 961 411.7 961 386 961C360.3 961 334.7 961 308.8 961C283 961 257 961 231.2 961C205.3 961 179.7 961 154 961C128.3 961 102.7 961 77 961C51.3 961 25.7 961 12.8 961L0 961Z" fill="#fa7268"></path><path d="M0 669L12.8 672C25.7 675 51.3 681 77 676C102.7 671 128.3 655 154 661.8C179.7 668.7 205.3 698.3 231.2 701.8C257 705.3 283 682.7 308.8 668.3C334.7 654 360.3 648 386 648.2C411.7 648.3 437.3 654.7 463 671C488.7 687.3 514.3 713.7 527.2 726.8L540 740L540 961L527.2 961C514.3 961 488.7 961 463 961C437.3 961 411.7 961 386 961C360.3 961 334.7 961 308.8 961C283 961 257 961 231.2 961C205.3 961 179.7 961 154 961C128.3 961 102.7 961 77 961C51.3 961 25.7 961 12.8 961L0 961Z" fill="#ef5f67"></path><path d="M0 704L12.8 704C25.7 704 51.3 704 77 716.7C102.7 729.3 128.3 754.7 154 762.7C179.7 770.7 205.3 761.3 231.2 762.7C257 764 283 776 308.8 774.5C334.7 773 360.3 758 386 757.7C411.7 757.3 437.3 771.7 463 773.7C488.7 775.7 514.3 765.3 527.2 760.2L540 755L540 961L527.2 961C514.3 961 488.7 961 463 961C437.3 961 411.7 961 386 961C360.3 961 334.7 961 308.8 961C283 961 257 961 231.2 961C205.3 961 179.7 961 154 961C128.3 961 102.7 961 77 961C51.3 961 25.7 961 12.8 961L0 961Z" fill="#e34c67"></path><path d="M0 818L12.8 822.3C25.7 826.7 51.3 835.3 77 842.3C102.7 849.3 128.3 854.7 154 858.3C179.7 862 205.3 864 231.2 849.2C257 834.3 283 802.7 308.8 788.8C334.7 775 360.3 779 386 787C411.7 795 437.3 807 463 820.8C488.7 834.7 514.3 850.3 527.2 858.2L540 866L540 961L527.2 961C514.3 961 488.7 961 463 961C437.3 961 411.7 961 386 961C360.3 961 334.7 961 308.8 961C283 961 257 961 231.2 961C205.3 961 179.7 961 154 961C128.3 961 102.7 961 77 961C51.3 961 25.7 961 12.8 961L0 961Z" fill="#d53867"></path><path d="M0 867L12.8 871.8C25.7 876.7 51.3 886.3 77 882.5C102.7 878.7 128.3 861.3 154 861.5C179.7 861.7 205.3 879.3 231.2 888.3C257 897.3 283 897.7 308.8 898.8C334.7 900 360.3 902 386 895.7C411.7 889.3 437.3 874.7 463 864.3C488.7 854 514.3 848 527.2 845L540 842L540 961L527.2 961C514.3 961 488.7 961 463 961C437.3 961 411.7 961 386 961C360.3 961 334.7 961 308.8 961C283 961 257 961 231.2 961C205.3 961 179.7 961 154 961C128.3 961 102.7 961 77 961C51.3 961 25.7 961 12.8 961L0 961Z" fill="#c62368"></path></svg>