<svg id="visual" viewBox="0 0 960 540" width="960" height="540" xmlns="http://www.w3.org/2000/svg" xmlns:xlink="http://www.w3.org/1999/xlink" version="1.1"><rect x="0" y="0" width="960" height="540" fill="#001220"></rect><path d="M0 384L22.8 383.3C45.7 382.7 91.3 381.3 137 378.8C182.7 376.3 228.3 372.7 274 362.3C319.7 352 365.3 335 411.2 337.8C457 340.7 503 363.3 548.8 376.7C594.7 390 640.3 394 686 385C731.7 376 777.3 354 823 349.3C868.7 344.7 914.3 357.3 937.2 363.7L960 370L960 541L937.2 541C914.3 541 868.7 541 823 541C777.3 541 731.7 541 686 541C640.3 541 594.7 541 548.8 541C503 541 457 541 411.2 541C365.3 541 319.7 541 274 541C228.3 541 182.7 541 137 541C91.3 541 45.7 541 22.8 541L0 541Z" fill="#fa7268"></path><path d="M0 376L22.8 377.7C45.7 379.3 91.3 382.7 137 379.8C182.7 377 228.3 368 274 371.8C319.7 375.7 365.3 392.3 411.2 394.3C457 396.3 503 383.7 548.8 375.7C594.7 367.7 640.3 364.3 686 364.5C731.7 364.7 777.3 368.3 823 377.5C868.7 386.7 914.3 401.3 937.2 408.7L960 416L960 541L937.2 541C914.3 541 868.7 541 823 541C777.3 541 731.7 541 686 541C640.3 541 594.7 541 548.8 541C503 541 457 541 411.2 541C365.3 541 319.7 541 274 541C228.3 541 182.7 541 137 541C91.3 541 45.7 541 22.8 541L0 541Z" fill="#ef5f67"></path><path d="M0 396L22.8 395.8C45.7 395.7 91.3 395.3 137 402.3C182.7 409.3 228.3 423.7 274 428.2C319.7 432.7 365.3 427.3 411.2 428.2C457 429 503 436 548.8 435.3C594.7 434.7 640.3 426.3 686 426.2C731.7 426 777.3 434 823 435C868.7 436 914.3 430 937.2 427L960 424L960 541L937.2 541C914.3 541 868.7 541 823 541C777.3 541 731.7 541 686 541C640.3 541 594.7 541 548.8 541C503 541 457 541 411.2 541C365.3 541 319.7 541 274 541C228.3 541 182.7 541 137 541C91.3 541 45.7 541 22.8 541L0 541Z" fill="#e34c67"></path><path d="M0 460L22.8 462.3C45.7 464.7 91.3 469.3 137 473.2C182.7 477 228.3 480 274 482.2C319.7 484.3 365.3 485.7 411.2 477.3C457 469 503 451 548.8 443.2C594.7 435.3 640.3 437.7 686 442.2C731.7 446.7 777.3 453.3 823 461.2C868.7 469 914.3 478 937.2 482.5L960 487L960 541L937.2 541C914.3 541 868.7 541 823 541C777.3 541 731.7 541 686 541C640.3 541 594.7 541 548.8 541C503 541 457 541 411.2 541C365.3 541 319.7 541 274 541C228.3 541 182.7 541 137 541C91.3 541 45.7 541 22.8 541L0 541Z" fill="#d53867"></path><path d="M0 487L22.8 489.7C45.7 492.3 91.3 497.7 137 495.5C182.7 493.3 228.3 483.7 274 483.8C319.7 484 365.3 494 411.2 499.2C457 504.3 503 504.7 548.8 505.3C594.7 506 640.3 507 686 503.5C731.7 500 777.3 492 823 486.2C868.7 480.3 914.3 476.7 937.2 474.8L960 473L960 541L937.2 541C914.3 541 868.7 541 823 541C777.3 541 731.7 541 686 541C640.3 541 594.7 541 548.8 541C503 541 457 541 411.2 541C365.3 541 319.7 541 274 541C228.3 541 182.7 541 137 541C91.3 541 45.7 541 22.8 541L0 541Z" fill="#c62368"></path></svg>