<svg id="visual" viewBox="0 0 960 540" width="960" height="540" xmlns="http://www.w3.org/2000/svg" xmlns:xlink="http://www.w3.org/1999/xlink" version="1.1"><rect x="0" y="0" width="960" height="540" fill="#001220"></rect><path d="M0 164L22.8 160.2C45.7 156.3 91.3 148.7 137 141.5C182.7 134.3 228.3 127.7 274 131C319.7 134.3 365.3 147.7 411.2 145.5C457 143.3 503 125.7 548.8 117.8C594.7 110 640.3 112 686 114.2C731.7 116.3 777.3 118.7 823 125C868.7 131.3 914.3 141.7 937.2 146.8L960 152L960 0L937.2 0C914.3 0 868.7 0 823 0C777.3 0 731.7 0 686 0C640.3 0 594.7 0 548.8 0C503 0 457 0 411.2 0C365.3 0 319.7 0 274 0C228.3 0 182.7 0 137 0C91.3 0 45.7 0 22.8 0L0 0Z" fill="#fa7268"></path><path d="M0 124L22.8 120.8C45.7 117.7 91.3 111.3 137 106C182.7 100.7 228.3 96.3 274 98.7C319.7 101 365.3 110 411.2 113.5C457 117 503 115 548.8 110.3C594.7 105.7 640.3 98.3 686 100.8C731.7 103.3 777.3 115.7 823 118.5C868.7 121.3 914.3 114.7 937.2 111.3L960 108L960 0L937.2 0C914.3 0 868.7 0 823 0C777.3 0 731.7 0 686 0C640.3 0 594.7 0 548.8 0C503 0 457 0 411.2 0C365.3 0 319.7 0 274 0C228.3 0 182.7 0 137 0C91.3 0 45.7 0 22.8 0L0 0Z" fill="#ef5f67"></path><path d="M0 75L22.8 76.2C45.7 77.3 91.3 79.7 137 83.2C182.7 86.7 228.3 91.3 274 94C319.7 96.7 365.3 97.3 411.2 98.8C457 100.3 503 102.7 548.8 99.8C594.7 97 640.3 89 686 89.2C731.7 89.3 777.3 97.7 823 99.3C868.7 101 914.3 96 937.2 93.5L960 91L960 0L937.2 0C914.3 0 868.7 0 823 0C777.3 0 731.7 0 686 0C640.3 0 594.7 0 548.8 0C503 0 457 0 411.2 0C365.3 0 319.7 0 274 0C228.3 0 182.7 0 137 0C91.3 0 45.7 0 22.8 0L0 0Z" fill="#e34c67"></path><path d="M0 77L22.8 75.2C45.7 73.3 91.3 69.7 137 65.2C182.7 60.7 228.3 55.3 274 54.7C319.7 54 365.3 58 411.2 57.2C457 56.3 503 50.7 548.8 48.3C594.7 46 640.3 47 686 53.3C731.7 59.7 777.3 71.3 823 72.5C868.7 73.7 914.3 64.3 937.2 59.7L960 55L960 0L937.2 0C914.3 0 868.7 0 823 0C777.3 0 731.7 0 686 0C640.3 0 594.7 0 548.8 0C503 0 457 0 411.2 0C365.3 0 319.7 0 274 0C228.3 0 182.7 0 137 0C91.3 0 45.7 0 22.8 0L0 0Z" fill="#d53867"></path><path d="M0 37L22.8 38.7C45.7 40.3 91.3 43.7 137 45.5C182.7 47.3 228.3 47.7 274 45C319.7 42.3 365.3 36.7 411.2 36.2C457 35.7 503 40.3 548.8 41.8C594.7 43.3 640.3 41.7 686 39.8C731.7 38 777.3 36 823 35.8C868.7 35.7 914.3 37.3 937.2 38.2L960 39L960 0L937.2 0C914.3 0 868.7 0 823 0C777.3 0 731.7 0 686 0C640.3 0 594.7 0 548.8 0C503 0 457 0 411.2 0C365.3 0 319.7 0 274 0C228.3 0 182.7 0 137 0C91.3 0 45.7 0 22.8 0L0 0Z" fill="#c62368"></path></svg>